<svg xmlns="http://www.w3.org/2000/svg" version="1.1" xmlns:xlink="http://www.w3.org/1999/xlink" xmlns:svgjs="http://svgjs.dev/svgjs" width="2000" height="1500" viewBox="0 0 2000 1500"><rect width="2000" height="1500" fill="#ffffff"></rect><g transform="matrix(0.75,0,0,0.75,249.090909090909,282.7574301619434)"><svg viewBox="0 0 396 247" data-background-color="#ffffff" preserveAspectRatio="xMidYMid meet" height="1247" width="2000" xmlns="http://www.w3.org/2000/svg" xmlns:xlink="http://www.w3.org/1999/xlink"><g id="tight-bounds" transform="matrix(1,0,0,1,0.2400000000000091,-0.09999999999999432)"><svg viewBox="0 0 395.52 247.2" height="247.2" width="395.52"><g><svg></svg></g><g><svg viewBox="0 0 395.52 247.2" height="247.2" width="395.52"><mask id="b244a5b5-441f-45c1-bff7-4a02a42d04aa"><rect width="395.52" height="247.2" fill="white"></rect><g transform="matrix(1,0,0,1,0,97.79767190052519)" id="clone"><svg viewBox="0 0 395.52 51.60465619894963" height="51.60465619894963" width="395.52"><g><svg viewBox="0 0 395.52 51.60465619894963" height="51.60465619894963" width="395.52"><g><svg viewBox="0 0 395.52 51.60465619894963" height="51.60465619894963" width="395.52"><g><svg viewBox="0 0 395.52 51.60465619894963" height="51.60465619894963" width="395.52"><g id="SvgjsG1106"><svg viewBox="0 0 395.52 51.60465619894963" height="51.60465619894963" width="395.52" id="SvgjsSvg1105"><g><svg viewBox="0 0 395.52 51.60465619894963" height="51.60465619894963" width="395.52"><g transform="matrix(1,0,0,1,0,0)"><svg width="395.52" viewBox="-0.7300000190734863 -43.43000030517578 362.6500244140625 48.189998626708984" height="51.60465619894963" data-palette-color="#113f67"><path d="M29.13-14.09L29.13-14.09Q29.13-15.04 28.55-15.36 27.98-15.67 26.88-15.67L26.88-15.67 15.55-15.67 15.55-17.43 26.88-17.43Q30.88-17.43 30.88-14.09L30.88-14.09Q30.88-12.21 29.79-11.38 28.69-10.55 26.88-10.55L26.88-10.55 15.55-10.55 15.55-12.3 26.88-12.3Q29.13-12.3 29.13-14.09ZM14.58-28.13L14.58 0 12.82 0 12.82-29.88 26.88-29.88Q28.54-29.88 29.71-28.87 30.88-27.86 30.88-26.34L30.88-26.34Q30.88-24.34 29.79-23.45 28.69-22.56 26.88-22.56L26.88-22.56 15.55-22.56 15.55-24.32 26.88-24.32Q29.13-24.32 29.13-26.34L29.13-26.34Q29.13-27.17 28.49-27.65 27.86-28.13 26.88-28.13L26.88-28.13 14.58-28.13ZM15.55-19.04L15.55-20.8 26.88-20.8Q29.3-20.8 30.97-22.25 32.64-23.71 32.64-26.34L32.64-26.34Q32.64-28.47 30.9-30.05 29.15-31.64 26.88-31.64L26.88-31.64 11.06-31.64 11.06 0 9.3 0 9.3-33.4 26.88-33.4Q29.88-33.4 32.14-31.29 34.4-29.17 34.4-26.34L34.4-26.34Q34.4-24.12 33.36-22.46 32.32-20.8 30.57-19.9L30.57-19.9Q34.4-18.53 34.4-14.33L34.4-14.33Q34.4-11.01 32.2-9.02 30-7.03 26.88-7.03L26.88-7.03 15.55-7.03 15.55-8.79 26.88-8.79Q29.3-8.79 30.97-10.24 32.64-11.69 32.64-14.33L32.64-14.33Q32.64-16.11 31.37-17.48 30.1-18.85 27.64-19.07L27.64-19.07Q27.39-19.04 26.88-19.04L26.88-19.04 15.55-19.04ZM37.92-26.34L37.92-26.34Q37.92-22.92 35.5-20.17L35.5-20.17Q37.92-17.48 37.92-14.33L37.92-14.33Q37.92-11.28 36.39-8.78 34.86-6.27 32.34-4.9 29.81-3.52 26.88-3.52L26.88-3.52 15.55-3.52 15.55-5.27 26.88-5.27Q30.69-5.27 33.42-7.82 36.16-10.38 36.16-14.33L36.16-14.33Q36.16-15.75 35.44-17.47 34.72-19.19 33.45-20.09L33.45-20.09Q36.16-22.63 36.16-26.34L36.16-26.34Q36.16-29.91 33.37-32.53 30.59-35.16 26.88-35.16L26.88-35.16 7.54-35.16 7.54 0 5.79 0 5.79-36.91 26.88-36.91Q29.79-36.91 32.34-35.49 34.89-34.06 36.4-31.6 37.92-29.15 37.92-26.34ZM37.5-20.07L37.5-20.07Q39.67-22.97 39.67-26.34L39.67-26.34Q39.67-29.64 37.93-32.48 36.18-35.33 33.23-37 30.27-38.67 26.88-38.67L26.88-38.67 4.03-38.67 4.03 0 2.27 0 2.27-40.43 26.88-40.43Q30.74-40.43 34.09-38.53 37.45-36.62 39.44-33.36 41.43-30.1 41.43-26.34L41.43-26.34Q41.43-22.75 39.4-20.04L39.4-20.04Q41.43-17.24 41.43-14.33L41.43-14.33Q41.43-11.06 40.26-8.34 39.09-5.62 37.1-3.81 35.11-2 32.47-1 29.83 0 26.88 0L26.88 0 15.55 0 15.55-1.76 26.88-1.76Q29.44-1.76 31.79-2.72 34.13-3.69 35.86-5.35 37.6-7.01 38.64-9.35 39.67-11.69 39.67-14.33L39.67-14.33Q39.67-15.5 39.12-17.15 38.57-18.8 37.5-20.07ZM45.38 0L45.38-35.16 47.14-35.16 47.14 0 45.38 0ZM55.93 0L55.93-35.16 57.69-35.16 57.69-8.79 70.65-8.79 70.65-7.03 57.69-7.03 57.69-5.27 70.65-5.27 70.65-3.52 57.69-3.52 57.69-1.76 70.65-1.76 70.65 0 55.93 0ZM52.41 0L52.41-35.16 54.17-35.16 54.17 0 52.41 0ZM48.9 0L48.9-35.16 50.66-35.16 50.66 0 48.9 0ZM87.97-22.55Q85.91-20.48 85.91-17.58 85.91-14.67 87.97-12.61 90.03-10.55 92.94-10.55 95.84-10.55 97.91-12.61 99.97-14.67 99.97-17.58 99.97-20.48 97.91-22.55 95.84-24.61 92.94-24.61 90.03-24.61 87.97-22.55ZM86.73-11.36Q84.15-13.94 84.15-17.58 84.15-21.22 86.73-23.79 89.3-26.37 92.94-26.37 96.58-26.37 99.15-23.79 101.73-21.22 101.73-17.58 101.73-13.94 99.15-11.36 96.58-8.79 92.94-8.79 89.3-8.79 86.73-11.36ZM85.48-25.02Q82.39-21.92 82.39-17.58 82.39-13.23 85.48-10.13 88.57-7.03 92.94-7.03 97.31-7.03 100.4-10.13 103.49-13.23 103.49-17.58 103.49-21.92 100.4-25.02 97.31-28.13 92.94-28.13 88.57-28.13 85.48-25.02ZM82.28-11.4Q80.63-14.23 80.63-17.58 80.63-20.92 82.28-23.75 83.93-26.59 86.76-28.23 89.59-29.88 92.94-29.88 96.28-29.88 99.12-28.23 101.95-26.59 103.6-23.75 105.24-20.92 105.24-17.58 105.24-14.23 103.6-11.4 101.95-8.57 99.12-6.92 96.28-5.27 92.94-5.27 89.59-5.27 86.76-6.92 83.93-8.57 82.28-11.4ZM79.99-23.03Q78.88-20.43 78.88-17.58 78.88-14.72 79.99-12.12 81.1-9.52 82.99-7.63 84.88-5.74 87.48-4.63 90.08-3.52 92.94-3.52 95.8-3.52 98.4-4.63 101-5.74 102.89-7.63 104.78-9.52 105.89-12.12 107-14.72 107-17.58 107-20.43 105.89-23.03 104.78-25.63 102.89-27.53 101-29.42 98.4-30.53 95.8-31.64 92.94-31.64 90.08-31.64 87.48-30.53 84.88-29.42 82.99-27.53 81.1-25.63 79.99-23.03ZM78.38-11.43Q77.12-14.36 77.12-17.58 77.12-20.8 78.38-23.73 79.63-26.66 81.75-28.77 83.86-30.88 86.79-32.14 89.72-33.4 92.94-33.4 96.16-33.4 99.09-32.14 102.02-30.88 104.13-28.77 106.25-26.66 107.5-23.73 108.76-20.8 108.76-17.58 108.76-14.36 107.5-11.43 106.25-8.5 104.13-6.38 102.02-4.27 99.09-3.02 96.16-1.76 92.94-1.76 89.72-1.76 86.79-3.02 83.86-4.27 81.75-6.38 79.63-8.5 78.38-11.43ZM76.75-24.4Q75.36-21.14 75.36-17.58 75.36-14.01 76.75-10.75 78.14-7.5 80.5-5.14 82.86-2.78 86.12-1.39 89.37 0 92.94 0 96.5 0 99.76-1.39 103.02-2.78 105.38-5.14 107.73-7.5 109.13-10.75 110.52-14.01 110.52-17.58 110.52-21.14 109.13-24.4 107.73-27.66 105.38-30.02 103.02-32.37 99.76-33.76 96.5-35.16 92.94-35.16 89.37-35.16 86.12-33.76 82.86-32.37 80.5-30.02 78.14-27.66 76.75-24.4ZM75.14-10.07Q73.6-13.65 73.6-17.58 73.6-21.51 75.14-25.09 76.68-28.66 79.27-31.25 81.86-33.84 85.43-35.38 89.01-36.91 92.94-36.91 96.87-36.91 100.45-35.38 104.02-33.84 106.61-31.25 109.2-28.66 110.74-25.09 112.28-21.51 112.28-17.58 112.28-13.65 110.74-10.07 109.2-6.49 106.61-3.91 104.02-1.32 100.45 0.22 96.87 1.76 92.94 1.76 89.01 1.76 85.43 0.22 81.86-1.32 79.27-3.91 76.68-6.49 75.14-10.07ZM144.74-12.62L144.74-17.82 146.5-17.82 146.5 0Q142.6 1.76 138.42 1.76L138.42 1.76Q134.49 1.76 130.91 0.22 127.34-1.32 124.75-3.91 122.16-6.49 120.62-10.07 119.08-13.65 119.08-17.58 119.08-21.51 120.62-25.09 122.16-28.66 124.75-31.25 127.34-33.84 130.91-35.38 134.49-36.91 138.42-36.91L138.42-36.91Q142.91-36.91 146.87-34.97 150.82-33.03 153.53-29.64L153.53-29.64 152.12-28.59Q149.65-31.64 146.07-33.4 142.5-35.16 138.42-35.16L138.42-35.16Q134.86-35.16 131.6-33.76 128.34-32.37 125.98-30.02 123.63-27.66 122.23-24.4 120.84-21.14 120.84-17.58 120.84-14.01 122.23-10.75 123.63-7.5 125.98-5.14 128.34-2.78 131.6-1.39 134.86 0 138.42 0L138.42 0Q141.72 0 144.74-1.17L144.74-1.17 144.74-2.98Q141.69-1.76 138.42-1.76L138.42-1.76Q135.2-1.76 132.27-3.02 129.34-4.27 127.23-6.38 125.11-8.5 123.86-11.43 122.6-14.36 122.6-17.58 122.6-20.8 123.86-23.73 125.11-26.66 127.23-28.77 129.34-30.88 132.27-32.14 135.2-33.4 138.42-33.4L138.42-33.4Q142.11-33.4 145.34-31.81 148.58-30.22 150.8-27.44L150.8-27.44 149.43-26.34Q147.45-28.81 144.57-30.22 141.69-31.64 138.42-31.64L138.42-31.64Q135.56-31.64 132.96-30.53 130.36-29.42 128.47-27.53 126.58-25.63 125.47-23.03 124.36-20.43 124.36-17.58 124.36-14.72 125.47-12.12 126.58-9.52 128.47-7.63 130.36-5.74 132.96-4.63 135.56-3.52 138.42-3.52L138.42-3.52Q141.79-3.52 144.74-4.88L144.74-4.88 144.74-6.69Q141.79-5.27 138.42-5.27L138.42-5.27Q135.08-5.27 132.24-6.92 129.41-8.57 127.76-11.4 126.12-14.23 126.12-17.58 126.12-20.92 127.76-23.75 129.41-26.59 132.24-28.23 135.08-29.88 138.42-29.88L138.42-29.88Q141.28-29.88 143.8-28.65 146.33-27.42 148.04-25.24L148.04-25.24 146.65-24.17Q145.18-26.03 143.02-27.08 140.86-28.13 138.42-28.13L138.42-28.13Q134.05-28.13 130.96-25.02 127.87-21.92 127.87-17.58 127.87-13.23 130.96-10.13 134.05-7.03 138.42-7.03L138.42-7.03Q141.84-7.03 144.74-8.69L144.74-8.69 144.74-10.47Q141.89-8.79 138.42-8.79L138.42-8.79Q134.78-8.79 132.21-11.36 129.63-13.94 129.63-17.58 129.63-21.22 132.21-23.79 134.78-26.37 138.42-26.37L138.42-26.37Q140.47-26.37 142.28-25.48 144.08-24.58 145.31-23.05L145.31-23.05 143.89-21.97Q141.76-24.61 138.42-24.61L138.42-24.61Q135.51-24.61 133.45-22.55 131.39-20.48 131.39-17.58 131.39-14.67 133.45-12.61 135.51-10.55 138.42-10.55L138.42-10.55Q142.16-10.55 144.74-12.62L144.74-12.62ZM155.29 0L155.29-17.82 157.05-17.82 157.05 0 155.29 0ZM151.77 0L151.77-17.82 153.53-17.82 153.53 0 151.77 0ZM148.26 0L148.26-17.82 150.02-17.82 150.02 0 148.26 0ZM200.04 0L200.04-40.43 201.8-40.43 201.8 0 200.04 0ZM161.37 0L161.37-40.43 163.12-40.43 163.12 0 161.37 0ZM196.52 0L196.52-40.43 198.28-40.43 198.28 0 196.52 0ZM193.01 0L193.01-40.43 194.77-40.43 194.77 0 193.01 0ZM189.49-24.63L189.49-40.43 191.25-40.43 191.25 0 189.49 0 189.49-15.84 173.67-15.84 173.67 0 171.91 0 171.91-40.43 173.67-40.43 173.67-24.63 189.49-24.63ZM168.4 0L168.4-40.43 170.16-40.43 170.16 0 168.4 0ZM164.88 0L164.88-40.43 166.64-40.43 166.64 0 164.88 0ZM173.67-17.6L189.49-17.6 189.49-19.36 173.67-19.36 173.67-17.6ZM173.67-21.12L189.49-21.12 189.49-22.88 173.67-22.88 173.67-21.12ZM231.38 0L231.38-17.33Q231.38-20.46 229.46-22.17 227.53-23.88 224.35-23.88L224.35-23.88Q221.67-23.88 219.74-22.02 217.81-20.17 217.81-17.58L217.81-17.58Q217.81-16.11 218.2-14.95 218.59-13.79 219.26-13.02 219.93-12.26 220.86-11.76 221.79-11.25 222.8-11.04 223.82-10.82 224.96-10.82L224.96-10.82Q227.75-10.82 230.04-12.18L230.04-12.18 230.04-10.42Q227.67-9.18 224.94-9.18L224.94-9.18Q223.18-9.18 221.63-9.66 220.08-10.13 218.81-11.1 217.54-12.06 216.8-13.73 216.05-15.41 216.05-17.58L216.05-17.58Q216.05-20.95 218.42-23.29 220.79-25.63 224.35-25.63L224.35-25.63Q228.28-25.63 230.71-23.43 233.14-21.22 233.14-17.33L233.14-17.33 233.14 0 231.38 0ZM236.66-17.33L236.66-17.33 236.66 0 234.9 0 234.9-17.33Q234.9-21.95 231.95-24.67 228.99-27.39 224.35-27.39L224.35-27.39Q220.06-27.39 217.18-24.54 214.29-21.68 214.29-17.58L214.29-17.58Q214.29-15.09 215.16-13.11 216.03-11.13 217.52-9.94 219.01-8.74 220.85-8.12 222.69-7.5 224.74-7.5L224.74-7.5Q227.53-7.5 230.04-8.79L230.04-8.79 230.04-6.93Q227.4-5.83 224.72-5.83L224.72-5.83Q222.3-5.83 220.13-6.58 217.96-7.32 216.25-8.75 214.54-10.18 213.54-12.46 212.54-14.75 212.54-17.58L212.54-17.58Q212.54-22.39 215.94-25.77 219.35-29.15 224.35-29.15L224.35-29.15Q227.87-29.15 230.65-27.72 233.43-26.29 235.05-23.58 236.66-20.87 236.66-17.33ZM240.17-17.33L240.17-17.33 240.17 0 238.42 0 238.42-17.33Q238.42-21.36 236.57-24.48 234.73-27.59 231.53-29.25 228.33-30.91 224.35-30.91L224.35-30.91Q220.57-30.91 217.44-29.11 214.32-27.32 212.55-24.27 210.78-21.22 210.78-17.58L210.78-17.58Q210.78-14.45 211.93-11.88 213.07-9.3 215.01-7.64 216.96-5.98 219.43-5.07 221.91-4.15 224.62-4.15L224.62-4.15Q227.38-4.15 230.04-5.3L230.04-5.3 230.04-3.52Q227.26-2.47 224.57-2.47L224.57-2.47Q220.35-2.47 216.81-4.37 213.27-6.27 211.14-9.77 209.02-13.26 209.02-17.58L209.02-17.58Q209.02-20.65 210.2-23.44 211.39-26.22 213.42-28.25 215.44-30.27 218.3-31.47 221.15-32.67 224.35-32.67L224.35-32.67Q228.82-32.67 232.42-30.76 236.02-28.86 238.1-25.34 240.17-21.83 240.17-17.33ZM243.69-17.33L243.69-17.33 243.69 0 241.93 0 241.93-17.33Q241.93-22.31 239.61-26.23 237.29-30.15 233.29-32.29 229.28-34.42 224.35-34.42L224.35-34.42Q219.62-34.42 215.69-32.15 211.76-29.88 209.51-26.01 207.26-22.14 207.26-17.58L207.26-17.58Q207.26-14.58 208.23-11.88 209.19-9.18 210.86-7.17 212.54-5.15 214.72-3.69 216.91-2.22 219.43-1.46 221.96-0.71 224.57-0.71L224.57-0.71Q227.45-0.71 230.04-1.81L230.04-1.81 230.04 0Q227.33 0.95 224.47 0.95L224.47 0.95Q221.52 0.95 218.73 0.12 215.93-0.71 213.55-2.33 211.17-3.96 209.36-6.16 207.56-8.37 206.53-11.33 205.51-14.28 205.51-17.58L205.51-17.58Q205.51-21.36 206.93-24.79 208.36-28.22 210.84-30.73 213.32-33.23 216.85-34.7 220.37-36.18 224.35-36.18L224.35-36.18Q228.41-36.18 231.97-34.81 235.53-33.45 238.12-31.02 240.71-28.59 242.2-25.05 243.69-21.51 243.69-17.33ZM260.56 0L246.64-35.16 248.54-35.16 261.51-2.37 274.47-35.16 276.35-35.16 262.46 0 260.56 0ZM261.73-6.54L250.42-35.16 252.3-35.16 262.73-8.79 261.73-6.54ZM263.68-11.18L254.21-35.16 256.11-35.16 264.61-13.6 263.68-11.18ZM265.54-16.02L257.99-35.16 259.87-35.16 266.46-18.48 265.54-16.02ZM271.91 0L285.8-35.16 287.7-35.16 273.79 0 271.91 0ZM268.12 0L282.04-35.16 283.92-35.16 270 0 268.12 0ZM264.34 0L278.23-35.16 280.14-35.16 266.22 0 264.34 0ZM299.59-35.16L299.59 0 297.83 0 297.83-35.16 299.59-35.16ZM296.08-35.16L296.08 0 294.32 0 294.32-35.16 296.08-35.16ZM292.56-35.16L292.56 0 290.8 0 290.8-35.16 292.56-35.16ZM303.11-13.21L303.11-8.79 319.93-8.79 319.93-7.03 303.11-7.03 303.11-5.27 319.93-5.27 319.93-3.52 303.11-3.52 303.11-1.76 319.93-1.76 319.93 0 301.35 0 301.35-35.16 319.93-35.16 319.93-33.4 303.11-33.4 303.11-31.64 319.93-31.64 319.93-29.88 303.11-29.88 303.11-28.13 319.93-28.13 319.93-26.37 303.11-26.37 303.11-22 318.95-22 318.95-20.24 303.11-20.24 303.11-18.48 318.95-18.48 318.95-16.72 303.11-16.72 303.11-14.97 318.95-14.97 318.95-13.21 303.11-13.21ZM351.88-35.16L351.88-14.18 350.13-17.38 350.13-35.16 351.88-35.16ZM355.4-35.16L355.4-8.11 353.64-11.08 353.64-35.16 355.4-35.16ZM331.18 0L331.18-20.97 332.94-17.77 332.94 0 331.18 0ZM327.67 0L327.67-27.29 329.42-24.07 329.42 0 327.67 0ZM348.64 0L328.28-35.16 330.33-35.16 350.69 0 348.64 0ZM352.74 0L332.43-35.16 334.5-35.16 354.84 0 352.74 0ZM356.84 0L336.55-35.16 338.6-35.16 357.16-3.05 357.16-35.16 358.92-35.16 358.92 0 356.84 0ZM344.51 0L325.91-32.13 325.91 0 324.15 0 324.15-35.16 326.25-35.16 346.54 0 344.51 0Z" opacity="1" transform="matrix(1,0,0,1,0,0)" fill="black" class="wordmark-text-0" id="SvgjsPath1104" stroke-width="5" stroke="black" stroke-linejoin="round"></path></svg></g></svg></g></svg></g></svg></g><g></g></svg></g></svg></g></svg></g></mask><g mask="url(#b244a5b5-441f-45c1-bff7-4a02a42d04aa)"><g><path xmlns="http://www.w3.org/2000/svg" d="M242.272 161.05v0c0-3.872-1.182-6.461-3.546-7.765-2.323-1.264-5.727-1.895-10.211-1.895v0h-69.275v-10.762h69.275c16.305 0 24.457 6.807 24.457 20.422v0c0 7.663-2.222 13.187-6.664 16.57-4.484 3.383-10.415 5.075-17.793 5.075v0h-69.275v-10.7h69.275c9.171 0 13.757-3.648 13.757-10.945zM153.309 75.205v171.996h-10.761v-182.696h85.967c6.767 0 12.534 2.058 17.304 6.176 4.769 4.117 7.154 9.273 7.153 15.469v0c0 8.152-2.222 14.043-6.664 17.67-4.484 3.628-10.415 5.442-17.793 5.442v0h-69.275v-10.761h69.275c9.171 0 13.757-4.117 13.757-12.351v0c0-3.383-1.304-6.053-3.913-8.01-2.568-1.957-5.849-2.935-9.844-2.935v0zM159.24 130.784v-10.761h69.275c9.864 0 18.2-2.955 25.008-8.866 6.807-5.951 10.211-14.287 10.21-25.007v0c0-8.682-3.546-16.244-10.638-22.684-7.133-6.481-15.327-9.722-24.58-9.722v0h-96.729v193.457h-10.761v-204.218h107.49c12.229 0 22.949 4.3 32.161 12.901 9.212 8.642 13.818 18.73 13.819 30.266v0c0 9.049-2.12 16.957-6.359 23.723-4.239 6.767-9.926 11.984-17.059 15.653v0c15.612 5.584 23.418 16.937 23.418 34.057v0c0 13.533-4.484 24.355-13.452 32.467-8.968 8.112-19.81 12.167-32.528 12.167v0h-69.275v-10.761h69.275c9.864 0 18.2-2.955 25.008-8.866 6.807-5.911 10.211-14.246 10.21-25.007v0c0-7.256-2.588-13.676-7.765-19.26-5.177-5.584-12.779-8.825-22.806-9.722v0c-1.019 0.122-2.568 0.183-4.647 0.183v0zM296.017 86.15v0c0 13.941-4.932 26.516-14.797 37.725v0c9.864 10.965 14.797 22.868 14.797 35.708v0c0 12.432-3.118 23.744-9.355 33.934-6.237 10.231-14.491 18.139-24.763 23.724-10.313 5.625-21.441 8.438-33.384 8.438v0h-69.275v-10.701h69.275c15.53 0 28.86-5.197 39.988-15.591 11.169-10.435 16.753-23.703 16.753-39.804v0c0-5.788-1.467-12.188-4.402-19.199-2.935-7.011-6.991-12.351-12.168-16.02v0c11.047-10.354 16.57-23.092 16.57-38.214v0c0-14.552-5.686-27.168-17.059-37.848-11.332-10.72-24.559-16.081-39.682-16.08v0h-118.251v214.979h-10.7v-225.68h128.951c11.862 0 22.99 2.894 33.384 8.683 10.394 5.829 18.669 13.757 24.824 23.784 6.196 9.987 9.294 20.707 9.294 32.162zM293.449 124.487v0c8.845-11.821 13.268-24.6 13.268-38.337v0c0-13.451-3.546-25.965-10.639-37.542-7.133-11.617-16.712-20.829-28.737-27.637-12.066-6.807-25.008-10.211-38.826-10.211v0h-139.712v236.441h-10.761v-247.202h150.473c15.734 0 30.429 3.872 44.084 11.617 13.696 7.786 24.6 18.323 32.712 31.611 8.112 13.288 12.167 27.596 12.167 42.923v0c0 14.634-4.137 27.474-12.412 38.52v0c8.275 11.413 12.412 23.051 12.412 34.913v0c0 13.329-2.385 25.537-7.153 36.625-4.769 11.087-11.21 20.32-19.322 27.697-8.112 7.378-17.548 13.105-28.309 17.182-10.761 4.076-22.154 6.114-34.179 6.114v0h-69.275v-10.761h69.275c10.435 0 20.442-1.957 30.021-5.87 9.538-3.954 17.833-9.314 24.886-16.081 7.093-6.767 12.759-14.919 16.997-24.457 4.199-9.538 6.298-19.688 6.298-30.449v0c0-4.769-1.121-10.517-3.363-17.243-2.242-6.726-5.544-12.677-9.905-17.853z" fill="#113f67" fill-rule="nonzero" stroke="none" stroke-width="1" stroke-linecap="butt" stroke-linejoin="miter" stroke-miterlimit="10" stroke-dasharray="" stroke-dashoffset="0" font-family="none" font-weight="none" font-size="none" text-anchor="none" style="mix-blend-mode: normal" data-fill-palette-color="tertiary"></path></g></g><g transform="matrix(1,0,0,1,0,97.79767190052519)"><svg viewBox="0 0 395.52 51.60465619894963" height="51.60465619894963" width="395.52"><g><svg viewBox="0 0 395.52 51.60465619894963" height="51.60465619894963" width="395.52"><g><svg viewBox="0 0 395.52 51.60465619894963" height="51.60465619894963" width="395.52"><g><svg viewBox="0 0 395.52 51.60465619894963" height="51.60465619894963" width="395.52"><g id="textblocktransform"><svg viewBox="0 0 395.52 51.60465619894963" height="51.60465619894963" width="395.52" id="textblock"><g><svg viewBox="0 0 395.52 51.60465619894963" height="51.60465619894963" width="395.52"><g transform="matrix(1,0,0,1,0,0)"><svg width="395.52" viewBox="-0.7300000190734863 -43.43000030517578 362.6500244140625 48.189998626708984" height="51.60465619894963" data-palette-color="#113f67"><path d="M29.13-14.09L29.13-14.09Q29.13-15.04 28.55-15.36 27.98-15.67 26.88-15.67L26.88-15.67 15.55-15.67 15.55-17.43 26.88-17.43Q30.88-17.43 30.88-14.09L30.88-14.09Q30.88-12.21 29.79-11.38 28.69-10.55 26.88-10.55L26.88-10.55 15.55-10.55 15.55-12.3 26.88-12.3Q29.13-12.3 29.13-14.09ZM14.58-28.13L14.58 0 12.82 0 12.82-29.88 26.88-29.88Q28.54-29.88 29.71-28.87 30.88-27.86 30.88-26.34L30.88-26.34Q30.88-24.34 29.79-23.45 28.69-22.56 26.88-22.56L26.88-22.56 15.55-22.56 15.55-24.32 26.88-24.32Q29.13-24.32 29.13-26.34L29.13-26.34Q29.13-27.17 28.49-27.65 27.86-28.13 26.88-28.13L26.88-28.13 14.58-28.13ZM15.55-19.04L15.55-20.8 26.88-20.8Q29.3-20.8 30.97-22.25 32.64-23.71 32.64-26.34L32.64-26.34Q32.64-28.47 30.9-30.05 29.15-31.64 26.88-31.64L26.88-31.64 11.06-31.64 11.06 0 9.3 0 9.3-33.4 26.88-33.4Q29.88-33.4 32.14-31.29 34.4-29.17 34.4-26.34L34.4-26.34Q34.4-24.12 33.36-22.46 32.32-20.8 30.57-19.9L30.57-19.9Q34.4-18.53 34.4-14.33L34.4-14.33Q34.4-11.01 32.2-9.02 30-7.03 26.88-7.03L26.88-7.03 15.55-7.03 15.55-8.79 26.88-8.79Q29.3-8.79 30.97-10.24 32.64-11.69 32.64-14.33L32.64-14.33Q32.64-16.11 31.37-17.48 30.1-18.85 27.64-19.07L27.64-19.07Q27.39-19.04 26.88-19.04L26.88-19.04 15.55-19.04ZM37.92-26.34L37.92-26.34Q37.92-22.92 35.5-20.17L35.5-20.17Q37.92-17.48 37.92-14.33L37.92-14.33Q37.92-11.28 36.39-8.78 34.86-6.27 32.34-4.9 29.81-3.52 26.88-3.52L26.88-3.52 15.55-3.52 15.55-5.27 26.88-5.27Q30.69-5.27 33.42-7.82 36.16-10.38 36.16-14.33L36.16-14.33Q36.16-15.75 35.44-17.47 34.72-19.19 33.45-20.09L33.45-20.09Q36.16-22.63 36.16-26.34L36.16-26.34Q36.16-29.91 33.37-32.53 30.59-35.16 26.88-35.16L26.88-35.16 7.54-35.16 7.54 0 5.79 0 5.79-36.91 26.88-36.91Q29.79-36.91 32.34-35.49 34.89-34.06 36.4-31.6 37.92-29.15 37.92-26.34ZM37.5-20.07L37.5-20.07Q39.67-22.97 39.67-26.34L39.67-26.34Q39.67-29.64 37.93-32.48 36.18-35.33 33.23-37 30.27-38.67 26.88-38.67L26.88-38.67 4.03-38.67 4.03 0 2.27 0 2.27-40.43 26.88-40.43Q30.74-40.43 34.09-38.53 37.45-36.62 39.44-33.36 41.43-30.1 41.43-26.34L41.43-26.34Q41.43-22.75 39.4-20.04L39.4-20.04Q41.43-17.24 41.43-14.33L41.43-14.33Q41.43-11.06 40.26-8.34 39.09-5.62 37.1-3.81 35.11-2 32.47-1 29.83 0 26.88 0L26.88 0 15.55 0 15.55-1.76 26.88-1.76Q29.44-1.76 31.79-2.72 34.13-3.69 35.86-5.35 37.6-7.01 38.64-9.35 39.67-11.69 39.67-14.33L39.67-14.33Q39.67-15.5 39.12-17.15 38.57-18.8 37.5-20.07ZM45.38 0L45.38-35.16 47.14-35.16 47.14 0 45.38 0ZM55.93 0L55.93-35.16 57.69-35.16 57.69-8.79 70.65-8.79 70.65-7.03 57.69-7.03 57.69-5.27 70.65-5.27 70.65-3.52 57.69-3.52 57.69-1.76 70.65-1.76 70.65 0 55.93 0ZM52.41 0L52.41-35.16 54.17-35.16 54.17 0 52.41 0ZM48.9 0L48.9-35.16 50.66-35.16 50.66 0 48.9 0ZM87.97-22.55Q85.91-20.48 85.91-17.58 85.91-14.67 87.97-12.61 90.03-10.55 92.94-10.55 95.84-10.55 97.91-12.61 99.97-14.67 99.97-17.58 99.97-20.48 97.91-22.55 95.84-24.61 92.94-24.61 90.03-24.61 87.97-22.55ZM86.73-11.36Q84.15-13.94 84.15-17.58 84.15-21.22 86.73-23.79 89.3-26.37 92.94-26.37 96.58-26.37 99.15-23.79 101.73-21.22 101.73-17.58 101.73-13.94 99.15-11.36 96.58-8.79 92.94-8.79 89.3-8.79 86.73-11.36ZM85.48-25.02Q82.39-21.92 82.39-17.58 82.39-13.23 85.48-10.13 88.57-7.03 92.94-7.03 97.31-7.03 100.4-10.13 103.49-13.23 103.49-17.58 103.49-21.92 100.4-25.02 97.31-28.13 92.94-28.13 88.57-28.13 85.48-25.02ZM82.28-11.4Q80.63-14.23 80.63-17.58 80.63-20.92 82.28-23.75 83.93-26.59 86.76-28.23 89.59-29.88 92.94-29.88 96.28-29.88 99.12-28.23 101.95-26.59 103.6-23.75 105.24-20.92 105.24-17.58 105.24-14.23 103.6-11.4 101.95-8.57 99.12-6.92 96.28-5.27 92.94-5.27 89.59-5.27 86.76-6.92 83.93-8.57 82.28-11.4ZM79.99-23.03Q78.88-20.43 78.88-17.58 78.88-14.72 79.99-12.12 81.1-9.52 82.99-7.63 84.88-5.74 87.48-4.63 90.08-3.52 92.94-3.52 95.8-3.52 98.4-4.63 101-5.74 102.89-7.63 104.78-9.52 105.89-12.12 107-14.72 107-17.58 107-20.43 105.89-23.03 104.78-25.63 102.89-27.53 101-29.42 98.4-30.53 95.8-31.64 92.94-31.64 90.08-31.64 87.48-30.53 84.88-29.42 82.99-27.53 81.1-25.63 79.99-23.03ZM78.38-11.43Q77.12-14.36 77.12-17.58 77.12-20.8 78.38-23.73 79.63-26.66 81.75-28.77 83.86-30.88 86.79-32.14 89.72-33.4 92.94-33.4 96.16-33.4 99.09-32.14 102.02-30.88 104.13-28.77 106.25-26.66 107.5-23.73 108.76-20.8 108.76-17.58 108.76-14.36 107.5-11.43 106.25-8.5 104.13-6.38 102.02-4.27 99.09-3.02 96.16-1.76 92.94-1.76 89.72-1.76 86.79-3.02 83.86-4.27 81.75-6.38 79.63-8.5 78.38-11.43ZM76.75-24.4Q75.36-21.14 75.36-17.58 75.36-14.01 76.75-10.75 78.14-7.5 80.5-5.14 82.86-2.78 86.12-1.39 89.37 0 92.94 0 96.5 0 99.76-1.39 103.02-2.78 105.38-5.14 107.73-7.5 109.13-10.75 110.52-14.01 110.52-17.58 110.52-21.14 109.13-24.4 107.73-27.66 105.38-30.02 103.02-32.37 99.76-33.76 96.5-35.16 92.94-35.16 89.37-35.16 86.12-33.76 82.86-32.37 80.5-30.02 78.14-27.66 76.75-24.4ZM75.14-10.07Q73.6-13.65 73.6-17.58 73.6-21.51 75.14-25.09 76.68-28.66 79.27-31.25 81.86-33.84 85.43-35.38 89.01-36.91 92.94-36.91 96.87-36.91 100.45-35.38 104.02-33.84 106.61-31.25 109.2-28.66 110.74-25.09 112.28-21.51 112.28-17.58 112.28-13.65 110.74-10.07 109.2-6.49 106.61-3.91 104.02-1.32 100.45 0.22 96.87 1.76 92.94 1.76 89.01 1.76 85.43 0.22 81.86-1.32 79.27-3.91 76.68-6.49 75.14-10.07ZM144.74-12.62L144.74-17.82 146.5-17.82 146.5 0Q142.6 1.76 138.42 1.76L138.42 1.76Q134.49 1.76 130.91 0.22 127.34-1.32 124.75-3.91 122.16-6.49 120.62-10.07 119.08-13.65 119.08-17.58 119.08-21.51 120.62-25.09 122.16-28.66 124.75-31.25 127.34-33.84 130.91-35.38 134.49-36.91 138.42-36.91L138.42-36.91Q142.91-36.91 146.87-34.97 150.82-33.03 153.53-29.64L153.53-29.64 152.12-28.59Q149.65-31.64 146.07-33.4 142.5-35.16 138.42-35.16L138.42-35.16Q134.86-35.16 131.6-33.76 128.34-32.37 125.98-30.02 123.63-27.66 122.23-24.4 120.84-21.14 120.84-17.58 120.84-14.01 122.23-10.75 123.63-7.5 125.98-5.14 128.34-2.78 131.6-1.39 134.86 0 138.42 0L138.42 0Q141.72 0 144.74-1.17L144.74-1.17 144.74-2.98Q141.69-1.76 138.42-1.76L138.42-1.76Q135.2-1.76 132.27-3.02 129.34-4.27 127.23-6.38 125.11-8.5 123.86-11.43 122.6-14.36 122.6-17.58 122.6-20.8 123.86-23.73 125.11-26.66 127.23-28.77 129.34-30.88 132.27-32.14 135.2-33.4 138.42-33.4L138.42-33.4Q142.11-33.4 145.34-31.81 148.58-30.22 150.8-27.44L150.8-27.44 149.43-26.34Q147.45-28.81 144.57-30.22 141.69-31.64 138.42-31.64L138.42-31.64Q135.56-31.64 132.96-30.53 130.36-29.42 128.47-27.53 126.58-25.63 125.47-23.03 124.36-20.43 124.36-17.58 124.36-14.72 125.47-12.12 126.58-9.52 128.47-7.63 130.36-5.74 132.96-4.63 135.56-3.52 138.42-3.52L138.42-3.52Q141.79-3.52 144.74-4.88L144.74-4.88 144.74-6.69Q141.79-5.27 138.42-5.27L138.42-5.27Q135.08-5.27 132.24-6.92 129.41-8.57 127.76-11.4 126.12-14.23 126.12-17.58 126.12-20.92 127.76-23.75 129.41-26.59 132.24-28.23 135.08-29.88 138.42-29.88L138.42-29.88Q141.28-29.88 143.8-28.65 146.33-27.42 148.04-25.24L148.04-25.24 146.65-24.17Q145.18-26.03 143.02-27.08 140.86-28.13 138.42-28.13L138.42-28.13Q134.05-28.13 130.96-25.02 127.87-21.92 127.87-17.58 127.87-13.23 130.96-10.13 134.05-7.03 138.42-7.03L138.42-7.03Q141.84-7.03 144.74-8.69L144.74-8.69 144.74-10.47Q141.89-8.79 138.42-8.79L138.42-8.79Q134.78-8.79 132.21-11.36 129.63-13.94 129.63-17.58 129.63-21.22 132.21-23.79 134.78-26.37 138.42-26.37L138.42-26.37Q140.47-26.37 142.28-25.48 144.08-24.58 145.31-23.05L145.31-23.05 143.89-21.97Q141.76-24.61 138.42-24.61L138.42-24.61Q135.51-24.61 133.45-22.55 131.39-20.48 131.39-17.58 131.39-14.67 133.45-12.61 135.51-10.55 138.42-10.55L138.42-10.55Q142.16-10.55 144.74-12.62L144.74-12.62ZM155.29 0L155.29-17.82 157.05-17.82 157.05 0 155.29 0ZM151.77 0L151.77-17.82 153.53-17.82 153.53 0 151.77 0ZM148.26 0L148.26-17.82 150.02-17.82 150.02 0 148.26 0ZM200.04 0L200.04-40.43 201.8-40.43 201.8 0 200.04 0ZM161.37 0L161.37-40.43 163.12-40.43 163.12 0 161.37 0ZM196.52 0L196.52-40.43 198.28-40.43 198.28 0 196.52 0ZM193.01 0L193.01-40.43 194.77-40.43 194.77 0 193.01 0ZM189.49-24.63L189.49-40.43 191.25-40.43 191.25 0 189.49 0 189.49-15.84 173.67-15.84 173.67 0 171.91 0 171.91-40.43 173.67-40.43 173.67-24.63 189.49-24.63ZM168.4 0L168.4-40.43 170.16-40.43 170.16 0 168.4 0ZM164.88 0L164.88-40.43 166.64-40.43 166.64 0 164.88 0ZM173.67-17.6L189.49-17.6 189.49-19.36 173.67-19.36 173.67-17.6ZM173.67-21.12L189.49-21.12 189.49-22.88 173.67-22.88 173.67-21.12ZM231.38 0L231.38-17.33Q231.38-20.46 229.46-22.17 227.53-23.88 224.35-23.88L224.35-23.88Q221.67-23.88 219.74-22.02 217.81-20.17 217.81-17.58L217.81-17.58Q217.81-16.11 218.2-14.95 218.59-13.79 219.26-13.02 219.93-12.26 220.86-11.76 221.79-11.25 222.8-11.04 223.82-10.82 224.96-10.82L224.96-10.82Q227.75-10.82 230.04-12.18L230.04-12.18 230.04-10.42Q227.67-9.18 224.94-9.18L224.94-9.18Q223.18-9.18 221.63-9.66 220.08-10.13 218.81-11.1 217.54-12.06 216.8-13.73 216.05-15.41 216.05-17.58L216.05-17.58Q216.05-20.95 218.42-23.29 220.79-25.63 224.35-25.63L224.35-25.63Q228.28-25.63 230.71-23.43 233.14-21.22 233.14-17.33L233.14-17.33 233.14 0 231.38 0ZM236.66-17.33L236.66-17.33 236.66 0 234.9 0 234.9-17.33Q234.9-21.95 231.95-24.67 228.99-27.39 224.35-27.39L224.35-27.39Q220.06-27.39 217.18-24.54 214.29-21.68 214.29-17.58L214.29-17.58Q214.29-15.09 215.16-13.11 216.03-11.13 217.52-9.94 219.01-8.74 220.85-8.12 222.69-7.5 224.74-7.5L224.74-7.5Q227.53-7.5 230.04-8.79L230.04-8.79 230.04-6.93Q227.4-5.83 224.72-5.83L224.72-5.83Q222.3-5.83 220.13-6.58 217.96-7.32 216.25-8.75 214.54-10.18 213.54-12.46 212.54-14.75 212.54-17.58L212.54-17.58Q212.54-22.39 215.94-25.77 219.35-29.15 224.35-29.15L224.35-29.15Q227.87-29.15 230.65-27.72 233.43-26.29 235.05-23.58 236.66-20.87 236.66-17.33ZM240.17-17.33L240.17-17.33 240.17 0 238.42 0 238.42-17.33Q238.42-21.36 236.57-24.48 234.73-27.59 231.53-29.25 228.33-30.91 224.35-30.91L224.35-30.91Q220.57-30.91 217.44-29.11 214.32-27.32 212.55-24.27 210.78-21.22 210.78-17.58L210.78-17.58Q210.78-14.45 211.93-11.88 213.07-9.3 215.01-7.64 216.96-5.98 219.43-5.07 221.91-4.15 224.62-4.15L224.62-4.15Q227.38-4.15 230.04-5.3L230.04-5.3 230.04-3.52Q227.26-2.47 224.57-2.47L224.57-2.47Q220.35-2.47 216.81-4.37 213.27-6.27 211.14-9.77 209.02-13.26 209.02-17.58L209.02-17.58Q209.02-20.65 210.2-23.44 211.39-26.22 213.42-28.25 215.44-30.27 218.3-31.47 221.15-32.67 224.35-32.67L224.35-32.67Q228.82-32.67 232.42-30.76 236.02-28.86 238.1-25.34 240.17-21.83 240.17-17.33ZM243.69-17.33L243.69-17.33 243.69 0 241.93 0 241.93-17.33Q241.93-22.31 239.61-26.23 237.29-30.15 233.29-32.29 229.28-34.42 224.35-34.42L224.35-34.42Q219.62-34.42 215.69-32.15 211.76-29.88 209.51-26.01 207.26-22.14 207.26-17.58L207.26-17.58Q207.26-14.58 208.23-11.88 209.19-9.18 210.86-7.17 212.54-5.15 214.72-3.69 216.91-2.22 219.43-1.46 221.96-0.71 224.57-0.71L224.57-0.71Q227.45-0.71 230.04-1.81L230.04-1.81 230.04 0Q227.33 0.95 224.47 0.95L224.47 0.95Q221.52 0.95 218.73 0.12 215.93-0.71 213.55-2.33 211.17-3.96 209.36-6.16 207.56-8.37 206.53-11.33 205.51-14.28 205.51-17.58L205.51-17.58Q205.51-21.36 206.93-24.79 208.36-28.22 210.84-30.73 213.32-33.23 216.85-34.7 220.37-36.18 224.35-36.18L224.35-36.18Q228.41-36.18 231.97-34.81 235.53-33.45 238.12-31.02 240.71-28.59 242.2-25.05 243.69-21.51 243.69-17.33ZM260.56 0L246.64-35.16 248.54-35.16 261.51-2.37 274.47-35.16 276.35-35.16 262.46 0 260.56 0ZM261.73-6.54L250.42-35.16 252.3-35.16 262.73-8.79 261.73-6.54ZM263.68-11.18L254.21-35.16 256.11-35.16 264.61-13.6 263.68-11.18ZM265.54-16.02L257.99-35.16 259.87-35.16 266.46-18.48 265.54-16.02ZM271.91 0L285.8-35.16 287.7-35.16 273.79 0 271.91 0ZM268.12 0L282.04-35.16 283.92-35.16 270 0 268.12 0ZM264.34 0L278.23-35.16 280.14-35.16 266.22 0 264.34 0ZM299.59-35.16L299.59 0 297.83 0 297.83-35.16 299.59-35.16ZM296.08-35.16L296.08 0 294.32 0 294.32-35.16 296.08-35.16ZM292.56-35.16L292.56 0 290.8 0 290.8-35.16 292.56-35.16ZM303.11-13.21L303.11-8.79 319.93-8.79 319.93-7.03 303.11-7.03 303.11-5.27 319.93-5.27 319.93-3.52 303.11-3.52 303.11-1.76 319.93-1.76 319.93 0 301.35 0 301.35-35.16 319.93-35.16 319.93-33.4 303.11-33.4 303.11-31.64 319.93-31.64 319.93-29.88 303.11-29.88 303.11-28.13 319.93-28.13 319.93-26.37 303.11-26.37 303.11-22 318.95-22 318.95-20.24 303.11-20.24 303.11-18.48 318.95-18.48 318.95-16.72 303.11-16.72 303.11-14.97 318.95-14.97 318.95-13.21 303.11-13.21ZM351.88-35.16L351.88-14.18 350.13-17.38 350.13-35.16 351.88-35.16ZM355.4-35.16L355.4-8.11 353.64-11.08 353.64-35.16 355.4-35.16ZM331.18 0L331.18-20.97 332.94-17.77 332.94 0 331.18 0ZM327.67 0L327.67-27.29 329.42-24.07 329.42 0 327.67 0ZM348.64 0L328.28-35.16 330.33-35.16 350.69 0 348.64 0ZM352.74 0L332.43-35.16 334.5-35.16 354.84 0 352.74 0ZM356.84 0L336.55-35.16 338.6-35.16 357.16-3.05 357.16-35.16 358.92-35.16 358.92 0 356.84 0ZM344.51 0L325.91-32.13 325.91 0 324.15 0 324.15-35.16 326.25-35.16 346.54 0 344.51 0Z" opacity="1" transform="matrix(1,0,0,1,0,0)" fill="#113f67" class="wordmark-text-0" data-fill-palette-color="primary" id="text-0"></path></svg></g></svg></g></svg></g></svg></g><g></g></svg></g></svg></g></svg></g></svg></g><defs></defs></svg><rect width="395.52" height="247.2" fill="none" stroke="none" visibility="hidden"></rect></g></svg></g></svg>